<svg xmlns="http://www.w3.org/2000/svg" version="1.1" xmlns:xlink="http://www.w3.org/1999/xlink" width="100%" height="100%" viewBox="0 0 1058 565"><polyline points="200,200 250,200" stroke-width="4" stroke="black"></polyline><polyline points="200,210 250,220" stroke-width="4" stroke="black"></polyline><polyline points="200,220 250,240" stroke-width="4" stroke="black"></polyline><polyline points="200,190 250,220" stroke-width="4" stroke="black"></polyline><polyline points="200,180 250,220" stroke-width="4" stroke="black"></polyline><polyline points="200,170 250,220" stroke-width="4" stroke="black"></polyline><polyline points="200,160 250,220" stroke-width="4" stroke="black"></polyline><polyline points="200,150 250,220" stroke-width="4" stroke="black"></polyline><polyline points="200,170 250,250" stroke-width="4" stroke="black"></polyline><polyline points="200,160 250,250" stroke-width="4" stroke="black"></polyline><polyline points="200,150 250,250" stroke-width="4" stroke="black"></polyline><rect width="50" height="50" fill="#1b961f" x="320" y="320" opacity="1"></rect><rect width="50" height="50" fill="#e121bb" x="300" y="300" opacity="1"></rect><rect width="50" height="50" fill="#2d2261" x="340" y="340" opacity="1"></rect><rect width="50" height="50" fill="#f01abb" x="220" y="320" opacity="1"></rect><rect width="50" height="50" fill="#0b9e01" x="200" y="300" opacity="1"></rect><rect width="50" height="50" fill="#b63eaf" x="240" y="340" opacity="1"></rect><rect width="50" height="50" fill="#038d49" x="220" y="220" opacity="1"></rect><rect width="50" height="50" fill="#625fd3" x="200" y="200" opacity="1"></rect><rect width="50" height="50" fill="#11090e" x="240" y="240" opacity="1"></rect><text x="351" y="314" font-size="30" font-family="Calibri" text-anchor="start" fill="#ef08e8" opacity="1"><tspan dy="0" x="351">Updated!</tspan></text><text x="380" y="314" font-size="30" font-family="Calibri" text-anchor="start" fill="#d12113" opacity="1"><tspan dy="0" x="380">Updated!</tspan></text><text x="350" y="314" font-size="30" font-family="Calibri" text-anchor="start" fill="#22b090" opacity="1"><tspan dy="0" x="350">Updated!</tspan></text><text x="361" y="314" font-size="30" font-family="Calibri" text-anchor="start" fill="#a62a78" opacity="1"><tspan dy="0" x="361">Updated!</tspan></text><text x="370" y="214" font-size="18" font-family="Calibri" text-anchor="start" fill="#1fb1ef" opacity="1"><tspan dy="0" x="370">Updated!</tspan></text><polygon points="608,300 716,362 716,487 608,550 500,487 500,362" fill="#622de3" stroke-width="4" stroke="black" opacity="0.5"></polygon><polygon points="208,100 316,162 316,287 208,350 100,287 100,162" fill="#086bf6" stroke-width="4" stroke="black" opacity="0.5"></polygon><polygon points="208,200 316,262 316,387 208,450 100,387 100,262" fill="#a51eac" stroke-width="4" stroke="black" opacity="0.5"></polygon><image width="100" height="100" xlink:href="./data/img/react.svg" x="500" y="300" opacity="0.2735217596144388"></image><image width="100" height="100" xlink:href="./data/img/react.svg" x="200" y="200" opacity="0.366424416925893"></image><polyline points="200,200 250,200" stroke-width="4" stroke="black"></polyline><polyline points="200,210 250,220" stroke-width="4" stroke="black"></polyline><polyline points="200,220 250,240" stroke-width="4" stroke="black"></polyline><polyline points="200,190 250,220" stroke-width="4" stroke="black"></polyline><polyline points="200,180 250,220" stroke-width="4" stroke="black"></polyline><polyline points="200,170 250,220" stroke-width="4" stroke="black"></polyline><polyline points="200,160 250,220" stroke-width="4" stroke="black"></polyline><polyline points="200,150 250,220" stroke-width="4" stroke="black"></polyline><polyline points="200,170 250,250" stroke-width="4" stroke="black"></polyline><polyline points="200,160 250,250" stroke-width="4" stroke="black"></polyline><polyline points="400,150 450,250" stroke-width="4" stroke="black"></polyline><rect width="50" height="50" fill="#0e71d4" x="520" y="320" opacity="1"></rect><rect width="50" height="50" fill="#30b0c4" x="400" y="300" opacity="1"></rect><rect width="50" height="50" fill="#2c2591" x="540" y="340" opacity="1"></rect><rect width="50" height="50" fill="#a0af1a" x="420" y="320" opacity="1"></rect><rect width="50" height="50" fill="#824dbd" x="400" y="300" opacity="1"></rect><rect width="50" height="50" fill="#24fefb" x="440" y="340" opacity="1"></rect><rect width="50" height="50" fill="#6c67e7" x="420" y="220" opacity="1"></rect><rect width="50" height="50" fill="#6275cd" x="400" y="200" opacity="1"></rect><rect width="50" height="50" fill="#1b4324" x="440" y="240" opacity="1"></rect><text x="551" y="314" font-size="30" font-family="Calibri" text-anchor="start" fill="#a2be71" opacity="1"><tspan dy="0" x="551">Updated!</tspan></text><text x="580" y="314" font-size="30" font-family="Calibri" text-anchor="start" fill="#a308f7" opacity="1"><tspan dy="0" x="580">Updated!</tspan></text><text x="550" y="314" font-size="30" font-family="Calibri" text-anchor="start" fill="#00021c" opacity="1"><tspan dy="0" x="550">Updated!</tspan></text><text x="561" y="314" font-size="30" font-family="Calibri" text-anchor="start" fill="#c7f1fe" opacity="1"><tspan dy="0" x="561">Updated!</tspan></text><text x="570" y="214" font-size="18" font-family="Calibri" text-anchor="start" fill="#fa489f" opacity="1"><tspan dy="0" x="570">Updated!</tspan></text><polygon points="808,300 916,362 916,487 808,550 700,487 700,362" fill="#05f06a" stroke-width="4" stroke="black" opacity="0.5"></polygon><polygon points="408,100 516,162 516,287 408,350 300,287 300,162" fill="#c776c5" stroke-width="4" stroke="black" opacity="0.5"></polygon><polygon points="408,200 516,262 516,387 408,450 300,387 300,262" fill="#a94dd0" stroke-width="4" stroke="black" opacity="0.5"></polygon><image width="100" height="100" xlink:href="./data/img/react.svg" x="600" y="300" opacity="0.5750132785455009"></image><image width="100" height="100" xlink:href="./data/img/react.svg" x="400" y="200" opacity="0.42821494857823406"></image><polyline points="200,200 250,200" stroke-width="4" stroke="black"></polyline><polyline points="200,210 250,220" stroke-width="4" stroke="black"></polyline><polyline points="200,220 250,240" stroke-width="4" stroke="black"></polyline><polyline points="200,190 250,220" stroke-width="4" stroke="black"></polyline><polyline points="200,180 250,220" stroke-width="4" stroke="black"></polyline><polyline points="200,170 250,220" stroke-width="4" stroke="black"></polyline><polyline points="200,160 250,220" stroke-width="4" stroke="black"></polyline><polyline points="200,150 250,220" stroke-width="4" stroke="black"></polyline><polyline points="200,170 250,250" stroke-width="4" stroke="black"></polyline><polyline points="200,160 250,250" stroke-width="4" stroke="black"></polyline><polyline points="200,150 250,250" stroke-width="4" stroke="black"></polyline><rect width="50" height="50" fill="#068feb" x="320" y="320" opacity="1"></rect><rect width="50" height="50" fill="#c94270" x="300" y="300" opacity="1"></rect><rect width="50" height="50" fill="#5f3a40" x="340" y="340" opacity="1"></rect><rect width="50" height="50" fill="#1db80c" x="220" y="320" opacity="1"></rect><rect width="50" height="50" fill="#214e3a" x="200" y="300" opacity="1"></rect><rect width="50" height="50" fill="#dd88e6" x="240" y="340" opacity="1"></rect><rect width="50" height="50" fill="#e990f1" x="220" y="220" opacity="1"></rect><rect width="50" height="50" fill="#b2da78" x="200" y="200" opacity="1"></rect><rect width="50" height="50" fill="#9162e5" x="240" y="240" opacity="1"></rect><text x="351" y="314" font-size="30" font-family="Calibri" text-anchor="start" fill="#07c17c" opacity="1"><tspan dy="0" x="351">Updated!</tspan></text><text x="380" y="314" font-size="30" font-family="Calibri" text-anchor="start" fill="#8aec2b" opacity="1"><tspan dy="0" x="380">Updated!</tspan></text><text x="350" y="314" font-size="30" font-family="Calibri" text-anchor="start" fill="#698a2d" opacity="1"><tspan dy="0" x="350">Updated!</tspan></text><text x="361" y="314" font-size="30" font-family="Calibri" text-anchor="start" fill="#de4965" opacity="1"><tspan dy="0" x="361">Updated!</tspan></text><text x="370" y="214" font-size="18" font-family="Calibri" text-anchor="start" fill="#d44647" opacity="1"><tspan dy="0" x="370">Updated!</tspan></text><polygon points="608,300 716,362 716,487 608,550 500,487 500,362" fill="#fbe40e" stroke-width="4" stroke="black" opacity="0.5"></polygon><polygon points="208,100 316,162 316,287 208,350 100,287 100,162" fill="#b2a91e" stroke-width="4" stroke="black" opacity="0.5"></polygon><polygon points="208,200 316,262 316,387 208,450 100,387 100,262" fill="#238de8" stroke-width="4" stroke="black" opacity="0.5"></polygon><image width="100" height="100" xlink:href="./data/img/react.svg" x="500" y="300" opacity="0.7192466450000207"></image><image width="100" height="100" xlink:href="./data/img/react.svg" x="200" y="200" opacity="0.8243108134104341"></image><polyline points="200,200 250,200" stroke-width="4" stroke="black"></polyline><polyline points="200,210 250,220" stroke-width="4" stroke="black"></polyline><polyline points="200,220 250,240" stroke-width="4" stroke="black"></polyline><polyline points="200,190 250,220" stroke-width="4" stroke="black"></polyline><polyline points="200,180 250,220" stroke-width="4" stroke="black"></polyline><polyline points="200,170 250,220" stroke-width="4" stroke="black"></polyline><polyline points="200,160 250,220" stroke-width="4" stroke="black"></polyline><polyline points="200,150 250,220" stroke-width="4" stroke="black"></polyline><polyline points="200,170 250,250" stroke-width="4" stroke="black"></polyline><polyline points="200,160 250,250" stroke-width="4" stroke="black"></polyline><polyline points="400,150 450,250" stroke-width="4" stroke="black"></polyline><rect width="50" height="50" fill="#ac02ba" x="120" y="320" opacity="1"></rect><rect width="50" height="50" fill="#d5be1c" x="100" y="300" opacity="1"></rect><rect width="50" height="50" fill="#33c04e" x="140" y="340" opacity="1"></rect><rect width="50" height="50" fill="#987e10" x="120" y="320" opacity="1"></rect><rect width="50" height="50" fill="#05ba09" x="100" y="300" opacity="1"></rect><rect width="50" height="50" fill="#a1c933" x="140" y="340" opacity="1"></rect><rect width="50" height="50" fill="#38a5e5" x="120" y="220" opacity="1"></rect><rect width="50" height="50" fill="#978275" x="100" y="200" opacity="1"></rect><rect width="50" height="50" fill="#3dba0e" x="140" y="240" opacity="1"></rect><text x="151" y="314" font-size="30" font-family="Calibri" text-anchor="start" fill="#17dc07" opacity="1"><tspan dy="0" x="151">Updated!</tspan></text><text x="180" y="164" font-size="30" font-family="Calibri" text-anchor="start" fill="#9b1ea6" opacity="1"><tspan dy="0" x="180">Updated!</tspan></text><text x="150" y="214" font-size="30" font-family="Calibri" text-anchor="start" fill="#a94973" opacity="1"><tspan dy="0" x="150">Updated!</tspan></text><text x="561" y="114" font-size="30" font-family="Calibri" text-anchor="start" fill="#675dc6" opacity="1"><tspan dy="0" x="561">Updated!</tspan></text><text x="570" y="114" font-size="18" font-family="Calibri" text-anchor="start" fill="#41d38e" opacity="1"><tspan dy="0" x="570">Updated!</tspan></text><polygon points="808,100 916,162 916,287 808,350 700,287 700,162" fill="#c9ca45" stroke-width="4" stroke="black" opacity="0.5"></polygon><polygon points="408,100 516,162 516,287 408,350 300,287 300,162" fill="#b4f9bb" stroke-width="4" stroke="black" opacity="0.5"></polygon><polygon points="408,100 516,162 516,287 408,350 300,287 300,162" fill="#9cce99" stroke-width="4" stroke="black" opacity="0.5"></polygon><image width="100" height="100" xlink:href="./data/img/react.svg" x="600" y="100" opacity="0.5565480768252569"></image><image width="100" height="100" xlink:href="./data/img/react.svg" x="400" y="100" opacity="0.9696731467465733"></image></svg>