<svg xmlns="http://www.w3.org/2000/svg" version="1.1" xmlns:xlink="http://www.w3.org/1999/xlink" width="100%" height="100%" viewBox="0 0 1058 794"><rect width="10" height="10" fill="#b7e99c" x="0" y="0"></rect>1<rect width="10" height="10" fill="#50e0d3" x="12" y="0"></rect>1<rect width="10" height="10" fill="#2f5987" x="24" y="0"></rect>1<rect width="10" height="10" fill="#40feb2" x="36" y="0"></rect>1<rect width="10" height="10" fill="#a58240" x="48" y="0"></rect>1<rect width="10" height="10" fill="#5c6665" x="60" y="0"></rect>1<rect width="10" height="10" fill="#51221c" x="72" y="0"></rect>1<rect width="10" height="10" fill="#acc348" x="84" y="0"></rect>1<rect width="10" height="10" fill="#9cdd3b" x="96" y="0"></rect>1<rect width="10" height="10" fill="#c268fd" x="108" y="0"></rect>1<rect width="10" height="10" fill="#0ef1f3" x="120" y="0"></rect>1<rect width="10" height="10" fill="#b75949" x="132" y="0"></rect>1<rect width="10" height="10" fill="#9209d2" x="144" y="0"></rect>1<rect width="10" height="10" fill="#53a008" x="156" y="0"></rect>1<rect width="10" height="10" fill="#a0ab75" x="168" y="0"></rect>1<rect width="10" height="10" fill="#d8ccf0" x="180" y="0"></rect>1<rect width="10" height="10" fill="#daa699" x="192" y="0"></rect>1<rect width="10" height="10" fill="#96837c" x="204" y="0"></rect>1<rect width="10" height="10" fill="#3c1c07" x="216" y="0"></rect>1<rect width="10" height="10" fill="#a1e45a" x="228" y="0"></rect>1<rect width="10" height="10" fill="#1995aa" x="240" y="0"></rect>1<rect width="10" height="10" fill="#260568" x="252" y="0"></rect>1<rect width="10" height="10" fill="#5fa70e" x="264" y="0"></rect>1<rect width="10" height="10" fill="#880d30" x="276" y="0"></rect>1<rect width="10" height="10" fill="#bf9507" x="288" y="0"></rect>1<rect width="10" height="10" fill="#cec3d0" x="300" y="0"></rect>1<rect width="10" height="10" fill="#5b29b2" x="312" y="0"></rect>1<rect width="10" height="10" fill="#2d47ec" x="324" y="0"></rect>1<rect width="10" height="10" fill="#4277ca" x="336" y="0"></rect>1<rect width="10" height="10" fill="#b458be" x="348" y="0"></rect>1<rect width="10" height="10" fill="#708512" x="360" y="0"></rect>1<rect width="10" height="10" fill="#e26344" x="372" y="0"></rect>1<rect width="10" height="10" fill="#eaf659" x="384" y="0"></rect>1<rect width="10" height="10" fill="#fca4e4" x="396" y="0"></rect>1<rect width="10" height="10" fill="#74c5f2" x="408" y="0"></rect>1<rect width="10" height="10" fill="#975886" x="420" y="0"></rect>1<rect width="10" height="10" fill="#cb29a3" x="432" y="0"></rect>1<rect width="10" height="10" fill="#08d244" x="444" y="0"></rect>1<rect width="10" height="10" fill="#c6e770" x="456" y="0"></rect>1<rect width="10" height="10" fill="#bdf9c2" x="468" y="0"></rect>1<rect width="10" height="10" fill="#a844a9" x="480" y="0"></rect>1<rect width="10" height="10" fill="#eea6cb" x="492" y="0"></rect>1<rect width="10" height="10" fill="#2f8d05" x="504" y="0"></rect>1<rect width="10" height="10" fill="#b4ac77" x="516" y="0"></rect>1<rect width="10" height="10" fill="#f56789" x="528" y="0"></rect>1<rect width="10" height="10" fill="#519adf" x="540" y="0"></rect>1<rect width="10" height="10" fill="#77bb93" x="552" y="0"></rect>1<rect width="10" height="10" fill="#6dff58" x="564" y="0"></rect>1<rect width="10" height="10" fill="#2309ec" x="576" y="0"></rect>1<rect width="10" height="10" fill="#8b1394" x="588" y="0"></rect>1<rect width="10" height="10" fill="#7b063a" x="600" y="0"></rect>1<rect width="10" height="10" fill="#8a91da" x="612" y="0"></rect>1<rect width="10" height="10" fill="#e65bdc" x="624" y="0"></rect>1<rect width="10" height="10" fill="#608590" x="636" y="0"></rect>1<rect width="10" height="10" fill="#821f05" x="648" y="0"></rect>1<rect width="10" height="10" fill="#381904" x="660" y="0"></rect>1<rect width="10" height="10" fill="#cbc290" x="672" y="0"></rect>1<rect width="10" height="10" fill="#e9ca28" x="684" y="0"></rect>1<rect width="10" height="10" fill="#86a84a" x="696" y="0"></rect>1<rect width="10" height="10" fill="#374058" x="708" y="0"></rect>1<rect width="10" height="10" fill="#16de63" x="720" y="0"></rect>1<rect width="10" height="10" fill="#e3ac07" x="732" y="0"></rect>1<rect width="10" height="10" fill="#cbeb00" x="744" y="0"></rect>1<rect width="10" height="10" fill="#4ec337" x="756" y="0"></rect>1<rect width="10" height="10" fill="#b2672d" x="768" y="0"></rect>1<rect width="10" height="10" fill="#8558dc" x="780" y="0"></rect>1<rect width="10" height="10" fill="#90e27d" x="792" y="0"></rect>1<rect width="10" height="10" fill="#30f61f" x="804" y="0"></rect>1<rect width="10" height="10" fill="#eb4cac" x="816" y="0"></rect>1<rect width="10" height="10" fill="#781171" x="828" y="0"></rect>1<rect width="10" height="10" fill="#70368a" x="840" y="0"></rect>1<rect width="10" height="10" fill="#a0d32c" x="852" y="0"></rect>1<rect width="10" height="10" fill="#a81eb9" x="864" y="0"></rect>1<rect width="10" height="10" fill="#28d0c5" x="876" y="0"></rect>1<rect width="10" height="10" fill="#1045e1" x="888" y="0"></rect>1<rect width="10" height="10" fill="#11ab8f" x="900" y="0"></rect>1<rect width="10" height="10" fill="#982f97" x="912" y="0"></rect>1<rect width="10" height="10" fill="#5d9a34" x="924" y="0"></rect>1<rect width="10" height="10" fill="#725f5a" x="936" y="0"></rect>1<rect width="10" height="10" fill="#0dbe9c" x="948" y="0"></rect>1<rect width="10" height="10" fill="#7c9b56" x="960" y="0"></rect>1<rect width="10" height="10" fill="#3b87d5" x="972" y="0"></rect>1<rect width="10" height="10" fill="#4eda78" x="984" y="0"></rect>1<rect width="10" height="10" fill="#84c97e" x="996" y="0"></rect>1<rect width="10" height="10" fill="#938bbe" x="1008" y="0"></rect>1<rect width="10" height="10" fill="#2acf54" x="1020" y="0"></rect>1<rect width="10" height="10" fill="#1d1d86" x="1032" y="0"></rect>1<rect width="10" height="10" fill="#fe9c7f" x="1044" y="0"></rect>1<rect width="10" height="10" fill="#dff867" x="1056" y="0"></rect>1<rect width="10" height="10" fill="#2cabdb" x="1068" y="0"></rect>1<rect width="10" height="10" fill="#c8b3f0" x="1080" y="0"></rect>1<rect width="10" height="10" fill="#7f4d0d" x="1092" y="0"></rect>1<rect width="10" height="10" fill="#401f3d" x="1104" y="0"></rect>1<rect width="10" height="10" fill="#2001ee" x="1116" y="0"></rect>1<rect width="10" height="10" fill="#1eeb9e" x="1128" y="0"></rect>1<rect width="10" height="10" fill="#837ee2" x="1140" y="0"></rect>1<rect width="10" height="10" fill="#5683f0" x="1152" y="0"></rect>1<rect width="10" height="10" fill="#608586" x="1164" y="0"></rect>1<rect width="10" height="10" fill="#75230e" x="1176" y="0"></rect>1<rect width="10" height="10" fill="#ce33e4" x="1188" y="0"></rect>1<rect width="10" height="10" fill="#cf1222" x="1200" y="0"></rect>1<rect width="10" height="10" fill="#7f314d" x="1212" y="0"></rect>1<rect width="10" height="10" fill="#32f85e" x="1224" y="0"></rect>1<rect width="10" height="10" fill="#7430d8" x="1236" y="0"></rect>1<rect width="10" height="10" fill="#2ae115" x="1248" y="0"></rect>1<rect width="10" height="10" fill="#3d7989" x="1260" y="0"></rect>1<rect width="10" height="10" fill="#182161" x="1272" y="0"></rect>1<rect width="10" height="10" fill="#68d8b9" x="1284" y="0"></rect>1<rect width="10" height="10" fill="#a410d8" x="1296" y="0"></rect>1<rect width="10" height="10" fill="#d4bbb5" x="1308" y="0"></rect>1<rect width="10" height="10" fill="#9f67b3" x="1320" y="0"></rect>1<rect width="10" height="10" fill="#0b4b4f" x="1332" y="0"></rect>1<rect width="10" height="10" fill="#c439d7" x="1344" y="0"></rect>1<rect width="10" height="10" fill="#ed57e0" x="1356" y="0"></rect>1<rect width="10" height="10" fill="#b3510e" x="1368" y="0"></rect>1<rect width="10" height="10" fill="#46bfb5" x="1380" y="0"></rect>1<rect width="10" height="10" fill="#4bf420" x="1392" y="0"></rect>1<rect width="10" height="10" fill="#41fd54" x="1404" y="0"></rect>1<rect width="10" height="10" fill="#79a689" x="1416" y="0"></rect>1<rect width="10" height="10" fill="#dd4589" x="1428" y="0"></rect>1<rect width="10" height="10" fill="#b0107e" x="1440" y="0"></rect>1<rect width="10" height="10" fill="#8ebda7" x="1452" y="0"></rect>1<rect width="10" height="10" fill="#3ab82d" x="1464" y="0"></rect>1<rect width="10" height="10" fill="#0dcfc5" x="1476" y="0"></rect>1<rect width="10" height="10" fill="#da004e" x="1488" y="0"></rect>1<rect width="10" height="10" fill="#13b04f" x="1500" y="0"></rect>1<rect width="10" height="10" fill="#3aa4dc" x="1512" y="0"></rect>1<rect width="10" height="10" fill="#3d9772" x="1524" y="0"></rect>1<rect width="10" height="10" fill="#fdf2a3" x="1536" y="0"></rect>1<rect width="10" height="10" fill="#5947c2" x="1548" y="0"></rect>1<rect width="10" height="10" fill="#421927" x="1560" y="0"></rect>1<rect width="10" height="10" fill="#2714a9" x="1572" y="0"></rect>1<rect width="10" height="10" fill="#98b320" x="1584" y="0"></rect>1<rect width="10" height="10" fill="#6385ad" x="1596" y="0"></rect>1<rect width="10" height="10" fill="#75e8ac" x="1608" y="0"></rect>1<rect width="10" height="10" fill="#02ced5" x="1620" y="0"></rect>1<rect width="10" height="10" fill="#c9c021" x="1632" y="0"></rect>1<rect width="10" height="10" fill="#16d011" x="1644" y="0"></rect>1<rect width="10" height="10" fill="#267727" x="1656" y="0"></rect>1<rect width="10" height="10" fill="#b9bd7e" x="1668" y="0"></rect>1<rect width="10" height="10" fill="#c10847" x="1680" y="0"></rect>1<rect width="10" height="10" fill="#28fce9" x="1692" y="0"></rect>1<rect width="10" height="10" fill="#58029a" x="1704" y="0"></rect>1<rect width="10" height="10" fill="#d47f33" x="1716" y="0"></rect>1<rect width="10" height="10" fill="#c72ea6" x="1728" y="0"></rect>1<rect width="10" height="10" fill="#d78070" x="1740" y="0"></rect>1<rect width="10" height="10" fill="#b40292" x="1752" y="0"></rect>1<rect width="10" height="10" fill="#635ec8" x="1764" y="0"></rect>1<rect width="10" height="10" fill="#089efa" x="1776" y="0"></rect>1<rect width="10" height="10" fill="#77bbce" x="1788" y="0"></rect>1<rect width="10" height="10" fill="#633ce3" x="1800" y="0"></rect>1<rect width="10" height="10" fill="#c39f73" x="1812" y="0"></rect>1<rect width="10" height="10" fill="#ab5a97" x="1824" y="0"></rect>1<rect width="10" height="10" fill="#ce49ba" x="1836" y="0"></rect>1<rect width="10" height="10" fill="#01a58d" x="1848" y="0"></rect>1<rect width="10" height="10" fill="#5453ef" x="1860" y="0"></rect>1<rect width="10" height="10" fill="#122406" x="1872" y="0"></rect>1<rect width="10" height="10" fill="#c55a38" x="1884" y="0"></rect>1<rect width="10" height="10" fill="#67b8de" x="1896" y="0"></rect>1<rect width="10" height="10" fill="#b4cd4e" x="1908" y="0"></rect>1<rect width="10" height="10" fill="#4405f7" x="1920" y="0"></rect>1<rect width="10" height="10" fill="#ae9544" x="1932" y="0"></rect>1<rect width="10" height="10" fill="#ff9f81" x="1944" y="0"></rect>1<rect width="10" height="10" fill="#5ab5a9" x="1956" y="0"></rect>1<rect width="10" height="10" fill="#e2e46a" x="1968" y="0"></rect>1<rect width="10" height="10" fill="#59c363" x="1980" y="0"></rect>1<rect width="10" height="10" fill="#3893e7" x="1992" y="0"></rect>1<rect width="10" height="10" fill="#a2ac78" x="2004" y="0"></rect>1<rect width="10" height="10" fill="#f22654" x="2016" y="0"></rect>1<rect width="10" height="10" fill="#19ae8a" x="2028" y="0"></rect>1<rect width="10" height="10" fill="#4c0146" x="2040" y="0"></rect>1<rect width="10" height="10" fill="#c12f30" x="2052" y="0"></rect>1<rect width="10" height="10" fill="#6da21d" x="2064" y="0"></rect>1<rect width="10" height="10" fill="#efa45f" x="2076" y="0"></rect>1<rect width="10" height="10" fill="#20299d" x="2088" y="0"></rect>1<rect width="10" height="10" fill="#d2beaa" x="2100" y="0"></rect>1<rect width="10" height="10" fill="#b1f7db" x="2112" y="0"></rect>1<rect width="10" height="10" fill="#0f5365" x="2124" y="0"></rect>1<rect width="10" height="10" fill="#8b892f" x="2136" y="0"></rect>1<rect width="10" height="10" fill="#ee63dd" x="2148" y="0"></rect>1<rect width="10" height="10" fill="#758a71" x="2160" y="0"></rect>1<rect width="10" height="10" fill="#cdfd75" x="2172" y="0"></rect>1<rect width="10" height="10" fill="#2309e9" x="2184" y="0"></rect>1<rect width="10" height="10" fill="#0cc5ff" x="2196" y="0"></rect>1<rect width="10" height="10" fill="#fbb669" x="2208" y="0"></rect>1<rect width="10" height="10" fill="#8c8240" x="2220" y="0"></rect>1<rect width="10" height="10" fill="#5aaa67" x="2232" y="0"></rect>1<rect width="10" height="10" fill="#3d3dd6" x="2244" y="0"></rect>1<rect width="10" height="10" fill="#8c5124" x="2256" y="0"></rect>1<rect width="10" height="10" fill="#51210a" x="2268" y="0"></rect>1<rect width="10" height="10" fill="#ef6ca4" x="2280" y="0"></rect>1<rect width="10" height="10" fill="#aab0eb" x="2292" y="0"></rect>1<rect width="10" height="10" fill="#465b82" x="2304" y="0"></rect>1<rect width="10" height="10" fill="#d326f6" x="2316" y="0"></rect>1<rect width="10" height="10" fill="#9adb17" x="2328" y="0"></rect>1<rect width="10" height="10" fill="#e2ae72" x="2340" y="0"></rect>1<rect width="10" height="10" fill="#2517e7" x="2352" y="0"></rect>1<rect width="10" height="10" fill="#93d00f" x="2364" y="0"></rect>1<rect width="10" height="10" fill="#cc92c3" x="2376" y="0"></rect>1<rect width="10" height="10" fill="#e9f238" x="2388" y="0"></rect>1<rect width="10" height="10" fill="#2f3559" x="2400" y="0"></rect>1<rect width="10" height="10" fill="#44dcc2" x="2412" y="0"></rect>1<rect width="10" height="10" fill="#dbf4e9" x="2424" y="0"></rect>1<rect width="10" height="10" fill="#534ce7" x="2436" y="0"></rect>1<rect width="10" height="10" fill="#c4d26c" x="2448" y="0"></rect>1<rect width="10" height="10" fill="#afeed4" x="2460" y="0"></rect>1<rect width="10" height="10" fill="#7ac7a9" x="2472" y="0"></rect>1<rect width="10" height="10" fill="#f3f35a" x="2484" y="0"></rect>1<rect width="10" height="10" fill="#d569d3" x="2496" y="0"></rect>1<rect width="10" height="10" fill="#25c9f2" x="2508" y="0"></rect>1<rect width="10" height="10" fill="#cb8931" x="2520" y="0"></rect>1<rect width="10" height="10" fill="#f2bef5" x="2532" y="0"></rect>1<rect width="10" height="10" fill="#1e1cb9" x="2544" y="0"></rect>1<rect width="10" height="10" fill="#f6d913" x="2556" y="0"></rect>1<rect width="10" height="10" fill="#e3a345" x="2568" y="0"></rect>1<rect width="10" height="10" fill="#cf91d8" x="2580" y="0"></rect>1<rect width="10" height="10" fill="#23da07" x="2592" y="0"></rect>1<rect width="10" height="10" fill="#4ee784" x="2604" y="0"></rect>1<rect width="10" height="10" fill="#4b645c" x="2616" y="0"></rect>1<rect width="10" height="10" fill="#73bbb8" x="2628" y="0"></rect>1<rect width="10" height="10" fill="#cf27c9" x="2640" y="0"></rect>1<rect width="10" height="10" fill="#35c725" x="2652" y="0"></rect>1<rect width="10" height="10" fill="#074503" x="2664" y="0"></rect>1<rect width="10" height="10" fill="#faffb1" x="2676" y="0"></rect>1<rect width="10" height="10" fill="#e907e4" x="2688" y="0"></rect>1<rect width="10" height="10" fill="#a18eba" x="2700" y="0"></rect>1<rect width="10" height="10" fill="#42e44e" x="2712" y="0"></rect>1<rect width="10" height="10" fill="#c261f0" x="2724" y="0"></rect>1<rect width="10" height="10" fill="#b711a2" x="2736" y="0"></rect>1<rect width="10" height="10" fill="#dd1eba" x="2748" y="0"></rect>1<rect width="10" height="10" fill="#b092ba" x="2760" y="0"></rect>1<rect width="10" height="10" fill="#4ac63d" x="2772" y="0"></rect>1<rect width="10" height="10" fill="#3c51ee" x="2784" y="0"></rect>1<rect width="10" height="10" fill="#7744c7" x="2796" y="0"></rect>1<rect width="10" height="10" fill="#06c2ab" x="2808" y="0"></rect>1<rect width="10" height="10" fill="#f8f1ed" x="2820" y="0"></rect>1<rect width="10" height="10" fill="#687128" x="2832" y="0"></rect>1<rect width="10" height="10" fill="#03c905" x="2844" y="0"></rect>1<rect width="10" height="10" fill="#6fd9a4" x="2856" y="0"></rect>1<rect width="10" height="10" fill="#7ac515" x="2868" y="0"></rect>1<rect width="10" height="10" fill="#0ec639" x="2880" y="0"></rect>1<rect width="10" height="10" fill="#6c45f8" x="2892" y="0"></rect>1<rect width="10" height="10" fill="#add985" x="2904" y="0"></rect>1<rect width="10" height="10" fill="#51b982" x="2916" y="0"></rect>1<rect width="10" height="10" fill="#fa3168" x="2928" y="0"></rect>1<rect width="10" height="10" fill="#fa4c65" x="2940" y="0"></rect>1<rect width="10" height="10" fill="#8f2e64" x="2952" y="0"></rect>1<rect width="10" height="10" fill="#e9220c" x="2964" y="0"></rect>1<rect width="10" height="10" fill="#e113a4" x="2976" y="0"></rect>1<rect width="10" height="10" fill="#6b947d" x="2988" y="0"></rect>1<rect width="10" height="10" fill="#c2b3cd" x="3000" y="0"></rect>1<rect width="10" height="10" fill="#bb9c14" x="3012" y="0"></rect>1<rect width="10" height="10" fill="#9e397d" x="3024" y="0"></rect>1<rect width="10" height="10" fill="#7e531c" x="3036" y="0"></rect>1<rect width="10" height="10" fill="#700340" x="3048" y="0"></rect>1<rect width="10" height="10" fill="#91732e" x="3060" y="0"></rect>1<rect width="10" height="10" fill="#9077c4" x="3072" y="0"></rect>1<rect width="10" height="10" fill="#bdbe3a" x="3084" y="0"></rect>1<rect width="10" height="10" fill="#8f3ccd" x="3096" y="0"></rect>1<rect width="10" height="10" fill="#1a582a" x="3108" y="0"></rect>1<rect width="10" height="10" fill="#ba43d5" x="3120" y="0"></rect>1<rect width="10" height="10" fill="#3c8509" x="3132" y="0"></rect>1<rect width="10" height="10" fill="#22473a" x="3144" y="0"></rect>1<rect width="10" height="10" fill="#e6452a" x="3156" y="0"></rect>1<rect width="10" height="10" fill="#083e98" x="3168" y="0"></rect>1<rect width="10" height="10" fill="#3130fe" x="3180" y="0"></rect>1<rect width="10" height="10" fill="#e39d16" x="3192" y="0"></rect>1<rect width="10" height="10" fill="#525bef" x="3204" y="0"></rect>1<rect width="10" height="10" fill="#3661bf" x="3216" y="0"></rect>1<rect width="10" height="10" fill="#bac05b" x="3228" y="0"></rect>1<rect width="10" height="10" fill="#45c03b" x="3240" y="0"></rect>1<rect width="10" height="10" fill="#f0fc5d" x="3252" y="0"></rect>1<rect width="10" height="10" fill="#94439d" x="3264" y="0"></rect>1<rect width="10" height="10" fill="#7d529a" x="3276" y="0"></rect>1<rect width="10" height="10" fill="#f530f6" x="3288" y="0"></rect>1<rect width="10" height="10" fill="#a48290" x="3300" y="0"></rect>1<rect width="10" height="10" fill="#db1640" x="3312" y="0"></rect>1<rect width="10" height="10" fill="#abc129" x="3324" y="0"></rect>1<rect width="10" height="10" fill="#972c5f" x="3336" y="0"></rect>1<rect width="10" height="10" fill="#b7fc56" x="3348" y="0"></rect>1<rect width="10" height="10" fill="#2e19dc" x="3360" y="0"></rect>1<rect width="10" height="10" fill="#17ee80" x="3372" y="0"></rect>1<rect width="10" height="10" fill="#ce65fb" x="3384" y="0"></rect>1<rect width="10" height="10" fill="#edffd8" x="3396" y="0"></rect>1<rect width="10" height="10" fill="#76cf14" x="3408" y="0"></rect>1<rect width="10" height="10" fill="#474a76" x="3420" y="0"></rect>1<rect width="10" height="10" fill="#5f36cf" x="3432" y="0"></rect>1<rect width="10" height="10" fill="#30e68a" x="3444" y="0"></rect>1<rect width="10" height="10" fill="#1d06b2" x="3456" y="0"></rect>1<rect width="10" height="10" fill="#20b787" x="3468" y="0"></rect>1<rect width="10" height="10" fill="#52bde2" x="3480" y="0"></rect>1<rect width="10" height="10" fill="#ee2a1d" x="3492" y="0"></rect>1<rect width="10" height="10" fill="#fb4886" x="3504" y="0"></rect>1<rect width="10" height="10" fill="#8947bd" x="3516" y="0"></rect>1<rect width="10" height="10" fill="#9c9297" x="3528" y="0"></rect>1<rect width="10" height="10" fill="#679781" x="3540" y="0"></rect>1<rect width="10" height="10" fill="#c150b9" x="3552" y="0"></rect>1<rect width="10" height="10" fill="#89fe7c" x="3564" y="0"></rect>1<rect width="10" height="10" fill="#0deea6" x="3576" y="0"></rect>1<rect width="10" height="10" fill="#e10e8a" x="3588" y="0"></rect>1<rect width="10" height="10" fill="#b16c30" x="0" y="12"></rect>1<rect width="10" height="10" fill="#53ce99" x="12" y="12"></rect>1<rect width="10" height="10" fill="#c9ac3d" x="24" y="12"></rect>1<rect width="10" height="10" fill="#4642c7" x="36" y="12"></rect>1<rect width="10" height="10" fill="#18af81" x="48" y="12"></rect>1<rect width="10" height="10" fill="#5c2112" x="60" y="12"></rect>1<rect width="10" height="10" fill="#d69061" x="72" y="12"></rect>1<rect width="10" height="10" fill="#c2b856" x="84" y="12"></rect>1<rect width="10" height="10" fill="#c6a607" x="96" y="12"></rect>1<rect width="10" height="10" fill="#aa0367" x="108" y="12"></rect>1<rect width="10" height="10" fill="#5f7ccb" x="120" y="12"></rect>1<rect width="10" height="10" fill="#6dd5a0" x="132" y="12"></rect>1<rect width="10" height="10" fill="#439cec" x="144" y="12"></rect>1<rect width="10" height="10" fill="#e49a4c" x="156" y="12"></rect>1<rect width="10" height="10" fill="#4c9d76" x="168" y="12"></rect>1<rect width="10" height="10" fill="#c1a9e9" x="180" y="12"></rect>1<rect width="10" height="10" fill="#01947b" x="192" y="12"></rect>1<rect width="10" height="10" fill="#04669c" x="204" y="12"></rect>1<rect width="10" height="10" fill="#7af196" x="216" y="12"></rect>1<rect width="10" height="10" fill="#44dff6" x="228" y="12"></rect>1<rect width="10" height="10" fill="#692d1b" x="240" y="12"></rect>1<rect width="10" height="10" fill="#286f05" x="252" y="12"></rect>1<rect width="10" height="10" fill="#701278" x="264" y="12"></rect>1<rect width="10" height="10" fill="#2e77a0" x="276" y="12"></rect>1<rect width="10" height="10" fill="#058e7f" x="288" y="12"></rect>1<rect width="10" height="10" fill="#4b9646" x="300" y="12"></rect>1<rect width="10" height="10" fill="#b84038" x="312" y="12"></rect>1<rect width="10" height="10" fill="#915626" x="324" y="12"></rect>1<rect width="10" height="10" fill="#b7b160" x="336" y="12"></rect>1<rect width="10" height="10" fill="#83185b" x="348" y="12"></rect>1<rect width="10" height="10" fill="#fe9116" x="360" y="12"></rect>1<rect width="10" height="10" fill="#2df773" x="372" y="12"></rect>1<rect width="10" height="10" fill="#ec060e" x="384" y="12"></rect>1<rect width="10" height="10" fill="#544625" x="396" y="12"></rect>1<rect width="10" height="10" fill="#1cddce" x="408" y="12"></rect>1<rect width="10" height="10" fill="#21e15b" x="420" y="12"></rect>1<rect width="10" height="10" fill="#c06b38" x="432" y="12"></rect>1<rect width="10" height="10" fill="#829124" x="444" y="12"></rect>1<rect width="10" height="10" fill="#4db55e" x="456" y="12"></rect>1<rect width="10" height="10" fill="#b1bb0e" x="468" y="12"></rect>1<rect width="10" height="10" fill="#b1ad6c" x="480" y="12"></rect>1<rect width="10" height="10" fill="#d5dc21" x="492" y="12"></rect>1<rect width="10" height="10" fill="#e7dceb" x="504" y="12"></rect>1<rect width="10" height="10" fill="#44f9dd" x="516" y="12"></rect>1<rect width="10" height="10" fill="#aca2f7" x="528" y="12"></rect>1<rect width="10" height="10" fill="#4f39de" x="540" y="12"></rect>1<rect width="10" height="10" fill="#260ce8" x="552" y="12"></rect>1<rect width="10" height="10" fill="#ee372b" x="564" y="12"></rect>1<rect width="10" height="10" fill="#23b3e3" x="576" y="12"></rect>1<rect width="10" height="10" fill="#888bf3" x="588" y="12"></rect>1<rect width="10" height="10" fill="#bfc189" x="600" y="12"></rect>1<rect width="10" height="10" fill="#5bda0b" x="612" y="12"></rect>1<rect width="10" height="10" fill="#395909" x="624" y="12"></rect>1<rect width="10" height="10" fill="#55c9b0" x="636" y="12"></rect>1<rect width="10" height="10" fill="#6c023d" x="648" y="12"></rect>1<rect width="10" height="10" fill="#976fbd" x="660" y="12"></rect>1<rect width="10" height="10" fill="#493276" x="672" y="12"></rect>1<rect width="10" height="10" fill="#ccebce" x="684" y="12"></rect>1<rect width="10" height="10" fill="#e95f7d" x="696" y="12"></rect>1<rect width="10" height="10" fill="#c48beb" x="708" y="12"></rect>1<rect width="10" height="10" fill="#fac9a6" x="720" y="12"></rect>1<rect width="10" height="10" fill="#4acb61" x="732" y="12"></rect>1<rect width="10" height="10" fill="#33d499" x="744" y="12"></rect>1<rect width="10" height="10" fill="#3f05ed" x="756" y="12"></rect>1<rect width="10" height="10" fill="#d6f3ef" x="768" y="12"></rect>1<rect width="10" height="10" fill="#eeb734" x="780" y="12"></rect>1<rect width="10" height="10" fill="#021ae1" x="792" y="12"></rect>1<rect width="10" height="10" fill="#e0cbd2" x="804" y="12"></rect>1<rect width="10" height="10" fill="#7b3a0f" x="816" y="12"></rect>1<rect width="10" height="10" fill="#ef5e2d" x="828" y="12"></rect>1<rect width="10" height="10" fill="#45f119" x="840" y="12"></rect>1<rect width="10" height="10" fill="#c8680d" x="852" y="12"></rect>1<rect width="10" height="10" fill="#a546ea" x="864" y="12"></rect>1<rect width="10" height="10" fill="#8f3ee8" x="876" y="12"></rect>1<rect width="10" height="10" fill="#fb27cc" x="888" y="12"></rect>1<rect width="10" height="10" fill="#b3fe85" x="900" y="12"></rect>1<rect width="10" height="10" fill="#01ccae" x="912" y="12"></rect>1<rect width="10" height="10" fill="#13060d" x="924" y="12"></rect>1<rect width="10" height="10" fill="#6b76eb" x="936" y="12"></rect>1<rect width="10" height="10" fill="#51ac13" x="948" y="12"></rect>1<rect width="10" height="10" fill="#fc1d4f" x="960" y="12"></rect>1<rect width="10" height="10" fill="#09f0f7" x="972" y="12"></rect>1<rect width="10" height="10" fill="#7fedf5" x="984" y="12"></rect>1<rect width="10" height="10" fill="#f9f26a" x="996" y="12"></rect>1<rect width="10" height="10" fill="#8bb65b" x="1008" y="12"></rect>1<rect width="10" height="10" fill="#ed5911" x="1020" y="12"></rect>1<rect width="10" height="10" fill="#0153d7" x="1032" y="12"></rect>1<rect width="10" height="10" fill="#868b95" x="1044" y="12"></rect>1<rect width="10" height="10" fill="#be0cab" x="1056" y="12"></rect>1<rect width="10" height="10" fill="#2b2501" x="1068" y="12"></rect>1<rect width="10" height="10" fill="#c6dab6" x="1080" y="12"></rect>1<rect width="10" height="10" fill="#3040cd" x="1092" y="12"></rect>1<rect width="10" height="10" fill="#154538" x="1104" y="12"></rect>1<rect width="10" height="10" fill="#6e7d0f" x="1116" y="12"></rect>1<rect width="10" height="10" fill="#d6e23d" x="1128" y="12"></rect>1<rect width="10" height="10" fill="#879cbe" x="1140" y="12"></rect>1<rect width="10" height="10" fill="#7c3274" x="1152" y="12"></rect>1<rect width="10" height="10" fill="#c2a999" x="1164" y="12"></rect>1<rect width="10" height="10" fill="#a5eec7" x="1176" y="12"></rect>1<rect width="10" height="10" fill="#01830b" x="1188" y="12"></rect>1<rect width="10" height="10" fill="#e9a590" x="1200" y="12"></rect>1<rect width="10" height="10" fill="#cb53fd" x="1212" y="12"></rect>1<rect width="10" height="10" fill="#6baf9f" x="1224" y="12"></rect>1<rect width="10" height="10" fill="#87f3df" x="1236" y="12"></rect>1<rect width="10" height="10" fill="#97e6a9" x="1248" y="12"></rect>1<rect width="10" height="10" fill="#22bc71" x="1260" y="12"></rect>1<rect width="10" height="10" fill="#a58824" x="1272" y="12"></rect>1<rect width="10" height="10" fill="#ec19cd" x="1284" y="12"></rect>1<rect width="10" height="10" fill="#ac15da" x="1296" y="12"></rect>1<rect width="10" height="10" fill="#5c2b78" x="1308" y="12"></rect>1<rect width="10" height="10" fill="#080755" x="1320" y="12"></rect>1<rect width="10" height="10" fill="#c00845" x="1332" y="12"></rect>1<rect width="10" height="10" fill="#626c5a" x="1344" y="12"></rect>1<rect width="10" height="10" fill="#001782" x="1356" y="12"></rect>1<rect width="10" height="10" fill="#610bfb" x="1368" y="12"></rect>1<rect width="10" height="10" fill="#6fb656" x="1380" y="12"></rect>1<rect width="10" height="10" fill="#9524b2" x="1392" y="12"></rect>1<rect width="10" height="10" fill="#65638c" x="1404" y="12"></rect>1<rect width="10" height="10" fill="#daa7f7" x="1416" y="12"></rect>1<rect width="10" height="10" fill="#98cffb" x="1428" y="12"></rect>1<rect width="10" height="10" fill="#168b7f" x="1440" y="12"></rect>1<rect width="10" height="10" fill="#3216a0" x="1452" y="12"></rect>1<rect width="10" height="10" fill="#714508" x="1464" y="12"></rect>1<rect width="10" height="10" fill="#f1d366" x="1476" y="12"></rect>1<rect width="10" height="10" fill="#46793c" x="1488" y="12"></rect>1<rect width="10" height="10" fill="#3ddfcb" x="1500" y="12"></rect>1<rect width="10" height="10" fill="#bff3b8" x="1512" y="12"></rect>1<rect width="10" height="10" fill="#a47537" x="1524" y="12"></rect>1<rect width="10" height="10" fill="#734875" x="1536" y="12"></rect>1<rect width="10" height="10" fill="#eafe12" x="1548" y="12"></rect>1<rect width="10" height="10" fill="#245043" x="1560" y="12"></rect>1<rect width="10" height="10" fill="#84f17a" x="1572" y="12"></rect>1<rect width="10" height="10" fill="#891c72" x="1584" y="12"></rect>1<rect width="10" height="10" fill="#5636ac" x="1596" y="12"></rect>1<rect width="10" height="10" fill="#1251a5" x="1608" y="12"></rect>1<rect width="10" height="10" fill="#ce3e8c" x="1620" y="12"></rect>1<rect width="10" height="10" fill="#85969d" x="1632" y="12"></rect>1<rect width="10" height="10" fill="#6d210b" x="1644" y="12"></rect>1<rect width="10" height="10" fill="#e8ebe5" x="1656" y="12"></rect>1<rect width="10" height="10" fill="#56819c" x="1668" y="12"></rect>1<rect width="10" height="10" fill="#6e7533" x="1680" y="12"></rect>1<rect width="10" height="10" fill="#edf04a" x="1692" y="12"></rect>1<rect width="10" height="10" fill="#805cda" x="1704" y="12"></rect>1<rect width="10" height="10" fill="#d76741" x="1716" y="12"></rect>1<rect width="10" height="10" fill="#b84df1" x="1728" y="12"></rect>1<rect width="10" height="10" fill="#97edbb" x="1740" y="12"></rect>1<rect width="10" height="10" fill="#486fd4" x="1752" y="12"></rect>1<rect width="10" height="10" fill="#fb4099" x="1764" y="12"></rect>1<rect width="10" height="10" fill="#bd1d09" x="1776" y="12"></rect>1<rect width="10" height="10" fill="#38698d" x="1788" y="12"></rect>1<rect width="10" height="10" fill="#18d234" x="1800" y="12"></rect>1<rect width="10" height="10" fill="#d6d97d" x="1812" y="12"></rect>1<rect width="10" height="10" fill="#23a298" x="1824" y="12"></rect>1<rect width="10" height="10" fill="#0e292f" x="1836" y="12"></rect>1<rect width="10" height="10" fill="#ac3d40" x="1848" y="12"></rect>1<rect width="10" height="10" fill="#bbd8a0" x="1860" y="12"></rect>1<rect width="10" height="10" fill="#936b58" x="1872" y="12"></rect>1<rect width="10" height="10" fill="#caa8ff" x="1884" y="12"></rect>1<rect width="10" height="10" fill="#2785a0" x="1896" y="12"></rect>1<rect width="10" height="10" fill="#c7155e" x="1908" y="12"></rect>1<rect width="10" height="10" fill="#047170" x="1920" y="12"></rect>1<rect width="10" height="10" fill="#79eccd" x="1932" y="12"></rect>1<rect width="10" height="10" fill="#07598b" x="1944" y="12"></rect>1<rect width="10" height="10" fill="#cf851f" x="1956" y="12"></rect>1<rect width="10" height="10" fill="#94a975" x="1968" y="12"></rect>1<rect width="10" height="10" fill="#a5ad0a" x="1980" y="12"></rect>1<rect width="10" height="10" fill="#d527b3" x="1992" y="12"></rect>1<rect width="10" height="10" fill="#3c6868" x="2004" y="12"></rect>1<rect width="10" height="10" fill="#41d64b" x="2016" y="12"></rect>1<rect width="10" height="10" fill="#5e307e" x="2028" y="12"></rect>1<rect width="10" height="10" fill="#ed55e8" x="2040" y="12"></rect>1<rect width="10" height="10" fill="#dd3cca" x="2052" y="12"></rect>1<rect width="10" height="10" fill="#025eb5" x="2064" y="12"></rect>1<rect width="10" height="10" fill="#ef3108" x="2076" y="12"></rect>1<rect width="10" height="10" fill="#804290" x="2088" y="12"></rect>1<rect width="10" height="10" fill="#64d900" x="2100" y="12"></rect>1<rect width="10" height="10" fill="#dcaae2" x="2112" y="12"></rect>1<rect width="10" height="10" fill="#b06597" x="2124" y="12"></rect>1<rect width="10" height="10" fill="#84a1b4" x="2136" y="12"></rect>1<rect width="10" height="10" fill="#1f33e7" x="2148" y="12"></rect>1<rect width="10" height="10" fill="#4f2a77" x="2160" y="12"></rect>1<rect width="10" height="10" fill="#2c993a" x="2172" y="12"></rect>1<rect width="10" height="10" fill="#863e4b" x="2184" y="12"></rect>1<rect width="10" height="10" fill="#065488" x="2196" y="12"></rect>1<rect width="10" height="10" fill="#232d8c" x="2208" y="12"></rect>1<rect width="10" height="10" fill="#9e0a1a" x="2220" y="12"></rect>1<rect width="10" height="10" fill="#71bb26" x="2232" y="12"></rect>1<rect width="10" height="10" fill="#114ff9" x="2244" y="12"></rect>1<rect width="10" height="10" fill="#8659d8" x="2256" y="12"></rect>1<rect width="10" height="10" fill="#4e5a79" x="2268" y="12"></rect>1<rect width="10" height="10" fill="#1c127a" x="2280" y="12"></rect>1<rect width="10" height="10" fill="#6a51eb" x="2292" y="12"></rect>1<rect width="10" height="10" fill="#0c40dd" x="2304" y="12"></rect>1<rect width="10" height="10" fill="#55ac3d" x="2316" y="12"></rect>1<rect width="10" height="10" fill="#28afe9" x="2328" y="12"></rect>1<rect width="10" height="10" fill="#75d8ff" x="2340" y="12"></rect>1<rect width="10" height="10" fill="#c6250b" x="2352" y="12"></rect>1<rect width="10" height="10" fill="#cdd7ee" x="2364" y="12"></rect>1<rect width="10" height="10" fill="#6a4d5a" x="2376" y="12"></rect>1<rect width="10" height="10" fill="#45d057" x="2388" y="12"></rect>1</svg>